<?xml version="1.0"?>
<svg xmlns="http://www.w3.org/2000/svg" id="fileSynchIcon" viewBox="0 0 512 512" width="512" height="512"><path d="M72,480H310.369A111.987,111.987,0,0,1,400,276.666V128H344a40.045,40.045,0,0,1-40-40V32H72A24.028,24.028,0,0,0,48,56V456A24.028,24.028,0,0,0,72,480Zm144-64H184a8,8,0,0,1,0-16h32a8,8,0,0,1,0,16Zm0-48H168a8,8,0,0,1,0-16h48a8,8,0,0,1,0,16Zm64-96H216a8,8,0,0,1,0-16h64a8,8,0,0,1,0,16Zm80-48H280a8,8,0,0,1,0-16h80a8,8,0,0,1,0,16Zm0-64a8,8,0,0,1,0,16H168a8,8,0,0,1,0-16ZM88,112h96a8,8,0,0,1,0,16H88a8,8,0,0,1,0-16Zm0,48h48a8,8,0,0,1,0,16H88a8,8,0,0,1,0-16Zm0,48H248a8,8,0,0,1,0,16H88a8,8,0,0,1,0-16Zm0,48h96a8,8,0,0,1,0,16H88a8,8,0,0,1,0-16Zm0,48H232a8,8,0,0,1,0,16H88a8,8,0,0,1,0-16Zm0,48h48a8,8,0,0,1,0,16H88a8,8,0,0,1,0-16Zm0,48h64a8,8,0,0,1,0,16H88a8,8,0,0,1,0-16ZM320,88V43.313L388.687,112H344A24.027,24.027,0,0,1,320,88Zm48,200a96,96,0,1,0,96,96A96.108,96.108,0,0,0,368,288Zm63.226,131.433a64,64,0,0,1-118.261-6.375l-4.92,7.38a8,8,0,0,1-13.312-8.876l16-24a8,8,0,0,1,11.094-2.218l24,16a8,8,0,0,1-8.875,13.312l-8.428-5.618a48,48,0,0,0,88.25,3.529,8,8,0,0,1,14.452,6.866Zm-5.959-39a8,8,0,0,1-11.094,2.218l-24-16a8,8,0,0,1,8.875-13.312l8.428,5.618a48,48,0,0,0-88.25-3.529,8,8,0,0,1-14.452-6.866,64,64,0,0,1,118.261,6.375l4.92-7.38a8,8,0,0,1,13.312,8.876Z"/></svg>
